# xmcd
#
# Track frame offsets:
#	182
#	28835
#	54150
#	72622
#	94500
#	121775
#	148532
#	169637
#	179530
#	203330
#
# Disc length: 2892 seconds
#
# Revision: 2
# Processed by: cddbd v1.5.2PL0 Copyright (c) Steve Scherf et al.
# Submitted via: EasyCDDAExtractor 16.0.6.1
#
DISCID=810b4a0a
DTITLE=Charles Brown - Jazz and Blues Collection - Charles Brown - Cd 52 
DYEAR=1970
DGENRE=Blues
TTITLE0=Quicksand
TTITLE1=Saving My Love For You
TTITLE2=Seven Long Days
TTITLE3=Just The Way You Are
TTITLE4=Black Night
TTITLE5=So Long
TTITLE6=A Cottage For Sale
TTITLE7=Brown's Boogie
TTITLE8=Quicksand
TTITLE9=Times Getting Tough
EXTD=
EXTT0=
EXTT1=
EXTT2=
EXTT3=
EXTT4=
EXTT5=
EXTT6=
EXTT7=
EXTT8=
EXTT9=
PLAYORDER=
